# xmcd CD database file
#
# Track frame offsets:
#	150
#	13145
#	27257
#	42175
#	55585
#	70617
#	83242
#	97450
#	112190
#	126045
#	138645
#	152580
#	168152
#	182040
#	196515
#	208535
#	221575
#	235990
#	250362
#	263785
#
# Disc length: 3693 seconds
#
# Revision: 0
# Processed by: cddbd v1.4PL0 Copyright (c) Steve Scherf et al.
# Submitted via: CDex 1.50
#
DISCID=1a0e6b14
DTITLE=Clarence 'Tom' Ashley - The Music Of Clarence Ashley 1929-1933 - Greenback Dollar
DYEAR=1900
DGENRE=Old-Time
TTITLE0=Little Sadie
TTITLE1=Greenback Dollar
TTITLE2=Frankie Silvers
TTITLE3=Coo Coo Bird
TTITLE4=Rude and Rambling Man
TTITLE5=Baby All Night Long
TTITLE6=Drunk Man Blues
TTITLE7=House Carpenter
TTITLE8=My Sweet Farm Girl
TTITLE9=Short Life Of Trouble
TTITLE10=You Are A Little Too Small
TTITLE11=Old John Hardy
TTITLE12=Corrina Corrina
TTITLE13=Sadie Ray
TTITLE14=3 Men Went A Huntin'
TTITLE15=Naomi Wise
TTITLE16=Haunted Road Blues
TTITLE17=Train Done Left Me
TTITLE18=Dark Holler
TTITLE19=Times Ain't Like They Used To Be
EXTD=
EXTT0=
EXTT1=
EXTT2=
EXTT3=
EXTT4=
EXTT5=
EXTT6=
EXTT7=
EXTT8=
EXTT9=
EXTT10=
EXTT11=
EXTT12=
EXTT13=
EXTT14=
EXTT15=
EXTT16=
EXTT17=
EXTT18=
EXTT19=
PLAYORDER=
